# xmcd
#
# Track frame offsets:
#	150
#	13550
#	27671
#	41593
#	54425
#	67501
#	79312
#	90674
#	106905
#	119730
#	133286
#	156086
#	169196
#	182404
#
# Disc length: 2660 seconds
#
# Revision: 0
# Processed by: cddbd v1.5.2PL0 Copyright (c) Steve Scherf et al.
# Submitted via: EZCDAudioConverter 2.1.7.1
#
DISCID=b40a620e
DTITLE=Various Artist - All Time Greatest Blues Songs [CD3 Of 3)
DYEAR=2012
DGENRE=Blues
TTITLE0=Muddy Waters - Mannish Boy
TTITLE1=Howlin' Wolf - Smokestack Lightnin'
TTITLE2=Slim Harpo - I'm A King Bee
TTITLE3=Big Joe Williams - Baby Please Don't Go
TTITLE4=John Lee Hooker - Bumble Bee
TTITLE5=Robert Johnson - Hellhound On My Trail
TTITLE6=Canned Heat - Spoonful
TTITLE7=B. B. King - It's My Own Fault Baby
TTITLE8=Robert Johnson - Come In My Kitchen
TTITLE9=Bessie Smith - Nobody Knows When Your Down and Out
TTITLE10=Canned Heat - On The Road Again
TTITLE11=Memphis Slim - Messin' Around
TTITLE12=Leadbelly - C C Rider
TTITLE13=Buddy Guy - Stone Crazy
EXTD=
EXTT0=
EXTT1=
EXTT2=
EXTT3=
EXTT4=
EXTT5=
EXTT6=
EXTT7=
EXTT8=
EXTT9=
EXTT10=
EXTT11=
EXTT12=
EXTT13=
PLAYORDER=
